<?xml version="1.0" encoding="utf-8"?>
<!-- Generator: Adobe Illustrator 19.0.0, SVG Export Plug-In . SVG Version: 6.00 Build 0)  -->
<svg version="1.1" id="Layer_1" xmlns="http://www.w3.org/2000/svg" xmlns:xlink="http://www.w3.org/1999/xlink" x="0px" y="0px"
	 viewBox="0 0 708.4 392.1" style="enable-background:new 0 0 708.4 392.1;" xml:space="preserve">
<style type="text/css">
	.st0{fill:#FFFFFF;}
</style>
<path id="XMLID_5_" class="st0" d="M116.1,61.6c-13.9,16.6-26.7,34.4-38.5,52.6C68,129,59.1,144.4,52.1,160.6
	c-6,13.8-11.4,29.1-10.7,44.4c0.7,15.5,9.2,27.3,23.6,32.9c4.5,1.8,6.4-5.5,2-7.2c-27.9-10.9-17.4-45.6-8.5-66.3
	C71,135.5,89.1,108.9,108,83.8c4.3-5.7,8.7-11.4,13.4-17C124.4,63.2,119.2,57.9,116.1,61.6L116.1,61.6z"/>
<path id="XMLID_6_" class="st0" d="M39.6,120.7C40.2,120.2,38.7,121.3,39.6,120.7c0.6-0.4,1.1-0.7,1.7-1c2.3-1.2,4.8-2,7.2-2.6
	c12.2-2.9,24.9-0.5,37,1.8c9.8,1.8,19.8,3.7,29.8,3.6c2.7,0,5.7,0,8.2-1.2c4.3-2.1,0.5-8.6-3.8-6.5c2.1-1-1.3,0.1-0.4,0
	c-2.3,0.3-4.7,0.2-7,0.1c-12.7-0.6-24.9-3.8-37.4-5.5c-12-1.7-30.6-3.1-40.6,6C30.8,118.7,36.1,124,39.6,120.7L39.6,120.7z"/>
<path id="XMLID_7_" class="st0" d="M185.5,155.7c4.8-10.1,4.1-23.4-8.3-27c-11.3-3.3-24.7,0.6-35.1,5.1c-11.9,5.2-23,12.9-32,22.3
	c-8.1,8.4-14.8,18.8-19.7,29.4c-3.7,8.1-8,19.4-3.3,28c6,10.9,20.9,9.7,30.3,4.8c8-4.1,14.9-10.4,21.1-16.6
	c10.9-10.8,20.6-22.9,30.1-34.9c-2-1.5-3.9-3-5.9-4.5c-4.1,8.7-7.3,19.1-6.3,28.8c1.4,14,14.8,21.6,28,17.6
	c13.1-4,24.3-14.8,33.7-24.3c11.5-11.6,21.9-24.2,31.8-37.1c5.8-7.5,11.4-15.1,16.7-22.9c2.6-3.8-2.8-7-5.9-4.5
	c-11.2,8.8-18,24-16.1,38.1c1.8,13.5,11.2,24.5,12.2,38.4c0.6,9.1-2.2,18-9.2,24c-4.5,3.9-10.5,5.4-16.4,5c-4.6-0.3-12-2-14.3-6.7
	c-3.2-6.7,8.8-9.2,13.1-8.9c2.4,0.1,4.7,0.5,7.1,0.8c18.6,2.1,36-3.5,51.8-13.2c12.6-7.8,24.1-17.7,35.6-27
	c11.8-9.5,23.4-19.2,34.9-29c19.8-17,40.9-34.4,57.3-54.9c8.9-11.1,23.5-34.5,7.4-46.3c-14-10.3-34.8,8.8-43.7,17.9
	c-18.4,18.7-32.4,42.3-45.9,64.5c-15.6,25.7-29.8,52.2-42.2,79.5c-3.3,7.2-6.4,14.4-9.4,21.6c-1.7,4.1,4.6,6.2,6.9,2.9
	c11-16.1,25.8-31.5,42.6-41.4c14.1-8.3,29.8-13.5,43.8-22.3c9.9-6.2,21.6-14.6,24.2-26.8c1-4.7-6.2-6.7-7.2-2
	c-2.7,12.7-17.4,20.7-27.8,26.5c-13.9,7.8-29.5,12.8-42.7,22c-15.3,10.6-28.8,24.8-39.3,40.2c2.3,1,4.6,1.9,6.9,2.9
	c12-28.7,25.9-56.5,41.4-83.4c13.1-22.7,26.8-45.8,43.1-66.3c7.9-9.9,16.9-19.8,27.8-26.4c4.4-2.7,12.6-7.2,17.6-3.3
	c5.9,4.7,3.6,13.8,1,19.5c-5.2,11.8-14.5,21.5-23.5,30.5c-19.2,19.2-39.8,36.9-60.7,54.3c-11.6,9.6-23.3,19.1-35.2,28.4
	c-10.8,8.5-22.3,16.5-35.4,21c-7.8,2.7-15.9,3.9-24.1,3.5c-6.3-0.4-12.6-2-18.9-0.7c-9.7,2-19.1,12.1-11.5,21.6
	c6.4,8,18.9,9.9,28.4,7.8c20.8-4.5,27.2-27.5,22.6-45.8c-3.2-12.8-12.7-24-10.6-37.8c1.2-7.8,5.4-15,10.9-20.6c1-1,2-2,3.1-2.8
	c-2-1.5-3.9-3-5.9-4.5c-11.5,16.9-24.1,33.2-37.8,48.4c-9.4,10.4-19.4,21.1-31.5,28.4c-7.9,4.8-22.2,8.8-26.3-3.1
	c-3-8.8,1.1-20.9,4.6-28.2c1.7-3.5-3.1-8.1-5.9-4.5c-12.2,15.6-24.9,32-40.5,44.4c-6.4,5-14.9,10.7-23.4,8
	c-17-5.3,1.8-33.5,7.3-41.6c12.1-17.8,31.9-32.3,53.4-36.3c6.1-1.1,19.5-2.9,20.8,6c0.3,2.4-0.2,4.9-0.8,7.1
	c-0.3,0.9-0.6,1.7-0.9,2.6c-0.3,0.7,0.3-0.5-0.1,0.3C176.9,156.2,183.4,160,185.5,155.7L185.5,155.7z"/>
<path id="XMLID_8_" class="st0" d="M332.2,182c8.6,7,16.3,14.9,24.1,22.9c7.1,7.4,16.3,11.5,26.6,9.2c11.5-2.5,20.6-11.4,29.5-18.7
	c7.8-6.4,15.4-13.1,22.3-20.4c11-11.7,20.4-24.7,29.2-38c2.4-3.6-2.9-7.4-5.9-4.5c-14.9,14.3-28.2,33.8-32.9,54
	c-2.1,9.2-4.1,24.5,6,30.1c9.1,5,21.2-1.2,29.2-5.8c15.8-9.1,29.8-21.8,42.4-35c3.3-3.5-2-8.8-5.3-5.3
	c-10.2,10.7-21.1,20.7-33.3,29.1c-6.9,4.7-18.1,12.9-27.2,11.2c-9.6-1.8-5.5-19-3.8-24.9c3.2-11.7,9.5-22.4,16.6-32.1
	c4.1-5.6,8.7-11.1,13.7-15.9c-2-1.5-3.9-3-5.9-4.5c-9.1,13.9-19,27.3-30.6,39.2c-7.9,8.1-16.6,15.3-25.5,22.3
	c-10.4,8.3-23.5,18.1-36.1,8.3c-6.1-4.7-10.9-11.3-16.6-16.5c-3.6-3.3-7.3-6.6-11.1-9.7C333.8,173.7,328.5,179,332.2,182L332.2,182z
	"/>
<path id="XMLID_12_" class="st0" d="M576.1,50.7c-15.6,17.4-29.9,36.2-43.2,55.4c-12.1,17.4-23.4,35.5-33,54.5
	c-10.5,20.6-18.3,42.2-25,64.3c-5.7,18.6-10.4,37.7-12.8,57c-1.5,12.5-2.2,25.6,0.6,38c2.7,12.1,11.6,26.3,25.7,19.2
	c15.9-8,22-29.6,25.9-45.4c5-20,8-41.4,4.1-61.8c-3.8-20.2-17.6-32.8-36.2-40.1c-3.8-1.5-5.9,3.7-3.6,6.3
	c5.9,6.7,15.2,11.4,23.9,12.9c23,4,42.6-11.8,56.5-28.4c3.1-3.7-2.2-9-5.3-5.3c-12.2,14.6-30.1,30.7-50.8,26.1
	c-7-1.5-14.2-5.2-19-10.6c-1.2,2.1-2.4,4.2-3.6,6.3c15.8,6.2,27.3,16.8,30.8,33.8c3.4,16.4,1.5,33.6-1.8,49.9
	c-3.2,15.9-7.5,36.4-20.6,47.4c-2.3,1.9-5.5,4-8.6,3.6c-4-0.6-6.4-5.1-7.8-8.5c-1.6-3.7-2.5-7.8-3-11.8c-1.7-12.2-0.6-24.9,1.3-37
	c2.8-18.2,7.5-36.1,13-53.6c6.3-20.3,13.6-40.1,23.3-59.1c8.8-17.2,18.9-33.6,29.7-49.5c13.7-20.2,28.6-40,44.9-58.1
	C584.6,52.4,579.3,47.1,576.1,50.7L576.1,50.7z"/>
<path id="XMLID_13_" class="st0" d="M589.4,127.5c-7.1,7.6-13.5,16-19.4,24.5c-9.8,13.9-19.5,29.9-22.4,46.9
	c-1.1,6.7-1.6,14.8,2.8,20.5c3.5,4.7,9.3,6.1,14.9,5.7c14.6-1.1,28.5-10.5,39.6-19.4c20.2-16.2,37.1-37.4,47.9-60.9
	c2-4.3-4.4-8.2-6.5-3.8c-16.2,33.4-28.5,68.2-41.9,102.7c-6.7,17.4-14.3,34.5-23.3,50.9c-8.8,16-19.1,31.9-32.9,44.1
	c-13.3,11.8-29.8,17.8-47.1,11.3c-4.5-1.7-6.5,5.5-2,7.2c36,13.6,64.7-19.8,81.6-47.1c22.6-36.3,34.7-77,50.6-116.3
	c6.7-16.5,13.7-32.9,21.5-49c-2.2-1.3-4.3-2.5-6.5-3.8c-8.8,19.1-21.4,36.2-36.6,50.6c-10.8,10.2-23.6,20.2-38,24.6
	c-4.1,1.3-10.2,2.9-14,0c-4.8-3.5-3.4-12.2-2.5-17c3-15.4,11.7-29.6,20.6-42.4c5.8-8.3,12.1-16.5,19-24
	C598,129.3,592.7,124,589.4,127.5L589.4,127.5z"/>
<g id="XMLID_9_">
	<line id="XMLID_10_" class="st0" x1="476.5" y1="113.4" x2="478.9" y2="110.1"/>
	<path id="XMLID_11_" class="st0" d="M480.8,115.9c0.8-1.1,1.6-2.2,2.4-3.3c0.7-1,0.8-2.7,0.5-3.9c-0.3-1.2-1.2-2.4-2.3-3
		c-1.2-0.6-2.6-0.9-3.9-0.5c-1.3,0.4-2.2,1.2-3,2.3c-0.8,1.1-1.6,2.2-2.4,3.3c-0.7,1-0.8,2.7-0.5,3.9c0.3,1.2,1.2,2.4,2.3,3
		c1.2,0.6,2.6,0.9,3.9,0.5C479.1,117.7,480,117,480.8,115.9L480.8,115.9z"/>
</g>
</svg>
