<?xml version="1.0"?>
<svg xmlns="http://www.w3.org/2000/svg" height="512px" viewBox="0 -31 512 512" width="512px"><path d="m512 90h-151v-90h-210v90h-151v360h512c0-11.105469 0-352.054688 0-360zm-331-60h150v60h-150zm-151 90h452v64.171875l-151 50.054687v-24.226562h-150v24.226562l-151-50.054687c0-13.066406 0-48.636719 0-64.171875zm271 150h-90v-30h90zm-9.269531 30-15 30h-41.460938l-15-30zm-261.730469 120v-204.226562l151 50.054687v22.710937l35.730469 71.460938h78.539062l35.730469-71.460938v-22.710937l151-50.054687v204.226562zm0 0" fill="#FFFFFF"/></svg>
